<svg aria-hidden="true" style="position: absolute; width: 0; height: 0; overflow: hidden;" version="1.1" xmlns="http://www.w3.org/2000/svg" xmlns:xlink="http://www.w3.org/1999/xlink">
<defs>
<symbol id="icon-arrow" viewBox="0 0 59 32">
<path fill="none" stroke="#fff" style="stroke: var(--color1, #fff)" stroke-linejoin="miter" stroke-linecap="butt" stroke-miterlimit="4" stroke-width="1.28" d="M58.88 16h-57.6M1.28 16l14.72-14.72M1.28 16l14.72 14.72"></path>
</symbol>
<symbol id="icon-inst" viewBox="0 0 32 32">
<path fill="#fff" style="fill: var(--color1, #fff)" d="M17.371 2.668c0.973-0.003 1.946 0.006 2.918 0.030l0.259 0.009c0.299 0.011 0.593 0.025 0.949 0.041 1.419 0.066 2.386 0.29 3.236 0.62 0.88 0.339 1.621 0.798 2.363 1.539 0.66 0.65 1.183 1.437 1.521 2.316l0.015 0.045c0.331 0.85 0.555 1.819 0.621 3.237 0.016 0.355 0.029 0.651 0.039 0.949l0.009 0.259c0.023 0.972 0.034 1.945 0.031 2.917l0.001 0.994v1.747c0 0.103 0.001 0.226 0.001 0.348 0 0.904-0.011 1.805-0.034 2.703l0.003-0.133-0.007 0.258c-0.011 0.299-0.025 0.594-0.041 0.949-0.066 1.419-0.293 2.387-0.621 3.236-0.353 0.925-0.876 1.713-1.537 2.362l-0.001 0.001c-0.65 0.661-1.438 1.184-2.318 1.523l-0.045 0.015c-0.849 0.329-1.817 0.553-3.235 0.619-0.356 0.017-0.651 0.030-0.949 0.041l-0.259 0.009c-0.768 0.020-1.672 0.031-2.579 0.031-0.119 0-0.239-0-0.358-0.001l0.018 0h-2.74c-0.114 0-0.248 0.001-0.382 0.001-0.892 0-1.781-0.011-2.667-0.033l0.131 0.003-0.258-0.007c-0.485-0.017-0.815-0.032-1.145-0.048l0.196 0.008c-1.419-0.066-2.387-0.293-3.238-0.621-0.924-0.353-1.711-0.877-2.358-1.537l-0.001-0.001c-0.662-0.65-1.185-1.438-1.524-2.318l-0.015-0.045c-0.33-0.849-0.554-1.818-0.62-3.236-0.007-0.1-0.022-0.43-0.035-0.761l-0.006-0.188-0.006-0.258c-0.021-0.79-0.033-1.72-0.033-2.653 0-0.093 0-0.187 0-0.28l-0 0.015v-2.741c-0.003-0.973 0.006-1.946 0.029-2.917l0.011-0.259c0.011-0.299 0.023-0.594 0.039-0.949 0.066-1.419 0.29-2.386 0.62-3.237 0.354-0.924 0.878-1.711 1.539-2.358l0.001-0.001c0.649-0.662 1.436-1.186 2.315-1.525l0.045-0.015c0.851-0.33 1.818-0.554 3.237-0.62l0.949-0.041 0.259-0.006c0.79-0.021 1.72-0.033 2.653-0.033 0.093 0 0.186 0 0.278 0l-0.014-0 2.741 0.001zM16 9.334c-0.025-0-0.055-0.001-0.084-0.001-3.682 0-6.667 2.985-6.667 6.667s2.985 6.667 6.667 6.667c0.030 0 0.059-0 0.089-0.001l-0.005 0c3.682 0 6.667-2.985 6.667-6.667s-2.985-6.667-6.667-6.667v0zM16 12.001c0.034-0.001 0.074-0.002 0.114-0.002 2.21 0 4.001 1.791 4.001 4.001s-1.791 4.001-4.001 4.001c-0.040 0-0.079-0.001-0.118-0.002l0.006 0c-2.209 0-4-1.791-4-4s1.791-4 4-4v0h-0.001zM23.001 7.334c-0.889 0.040-1.594 0.77-1.594 1.666s0.705 1.625 1.591 1.665l0.004 0c0.92 0 1.667-0.746 1.667-1.667s-0.746-1.667-1.667-1.667v0 0.002z"></path>
</symbol>
<symbol id="icon-logo" viewBox="0 0 32 32">
<path fill="#fff" style="fill: var(--color1, #fff)" d="M17 11c2.761 0 5 2.239 5 5s-2.239 5-5 5v0c-2.761 0-5-2.239-5-5s2.239-5 5-5v0z"></path>
<path fill="#fff" style="fill: var(--color1, #fff)" d="M8 28c0 2.209 1.791 4 4 4v0h12c2.209 0 4-1.791 4-4v0-24c0-2.209-1.791-4-4-4v0h-12c-2.209 0-4 1.791-4 4v0 2.344c-0 1.104-0.448 2.104-1.172 2.828l-1.656 1.656c-0.724 0.724-1.172 1.724-1.172 2.828v4.688c0 1.105 0.448 2.105 1.172 2.828l1.656 1.656c0.724 0.724 1.171 1.723 1.172 2.827v2.345zM12 27c0 0.552-0.448 1-1 1s-1-0.448-1-1v0c0-0.552 0.448-1 1-1s1 0.448 1 1v0zM17 9c3.866 0 7 3.134 7 7s-3.134 7-7 7v0c-3.866 0-7-3.134-7-7s3.134-7 7-7v0z"></path>
</symbol>
<symbol id="icon-phone" viewBox="0 0 32 32">
<path fill="#fff" style="fill: var(--color1, #fff)" d="M22.075 17.209l-0.607 0.604s-1.444 1.435-5.383-2.483c-3.94-3.917-2.496-5.351-2.496-5.351l0.381-0.382c0.943-0.935 1.033-2.439 0.21-3.538l-1.68-2.244c-1.020-1.36-2.987-1.54-4.153-0.38l-2.094 2.080c-0.576 0.576-0.963 1.319-0.917 2.146 0.121 2.116 1.077 6.667 6.417 11.977 5.662 5.629 10.976 5.853 13.148 5.65 0.688-0.064 1.285-0.413 1.766-0.893l1.893-1.883c1.28-1.27 0.921-3.451-0.717-4.34l-2.547-1.386c-1.075-0.583-2.381-0.412-3.221 0.422z"></path>
</symbol>
<symbol id="icon-quetions-arrow" viewBox="0 0 62 32">
<path fill="none" stroke="#fff" style="stroke: var(--color1, #fff)" stroke-linejoin="miter" stroke-linecap="butt" stroke-miterlimit="4" stroke-width="2" d="M2 1.5l29 29 29-29"></path>
</symbol>
<symbol id="icon-telegram" viewBox="0 0 32 32">
<path fill="#fff" style="fill: var(--color1, #fff)" d="M16 2.667c-7.36 0-13.333 5.973-13.333 13.333s5.973 13.333 13.333 13.333 13.333-5.973 13.333-13.333-5.973-13.333-13.333-13.333zM22.187 11.733c-0.201 2.107-1.067 7.227-1.507 9.587-0.187 0.999-0.559 1.333-0.907 1.373-0.772 0.067-1.359-0.507-2.106-1.001-1.173-0.772-1.84-1.252-2.974-2-1.321-0.866-0.467-1.346 0.293-2.119 0.201-0.201 3.613-3.307 3.68-3.587 0.004-0.017 0.006-0.036 0.006-0.056 0-0.071-0.028-0.136-0.073-0.184l0 0c-0.080-0.066-0.187-0.039-0.279-0.026-0.121 0.026-1.987 1.266-5.627 3.719-0.533 0.359-1.013 0.546-1.44 0.533-0.48-0.014-1.387-0.267-2.067-0.494-0.839-0.267-1.493-0.413-1.44-0.88 0.028-0.239 0.361-0.48 0.988-0.733 3.893-1.694 6.479-2.813 7.773-3.346 3.707-1.547 4.467-1.813 4.973-1.813 0.107 0 0.361 0.026 0.521 0.16 0.133 0.107 0.174 0.253 0.187 0.359-0.013 0.080 0.013 0.32 0 0.507z"></path>
</symbol>
</defs>
</svg>
